<svg xmlns="http://www.w3.org/2000/svg" viewBox="-186.3 -186.3 372.5 372.5" xmlns:c2pa="http://c2pa.org/manifest"><metadata><c2pa:manifest>AAAWgmp1bWIAAAAeanVtZGMycGEAEQAQgAAAqgA4m3EDYzJwYQAAABZcanVtYgAAAEdqdW1kYzJtYQARABCAAACqADibcQN1cm46YzJwYToyMjkzNWM4NC1kMDg5LTQ0OTktODYwMy1jYTFlZWM5NWFiMmIAAAADl2p1bWIAAAApanVtZGMyYXMAEQAQgAAAqgA4m3EDYzJwYS5hc3NlcnRpb25zAAAAALxqdW1iAAAARGp1bWRjYm9yABEAEIAAAKoAOJtxE2MycGEuaW5ncmVkaWVudC52MwAAAAAYYzJzaFT8zCxdHFokifsBbjmDFDsAAABwY2JvcqNpZGM6Zm9ybWF0bWltYWdlL3N2Zyt4bWxqaW5zdGFuY2VJRHgseG1wOmlpZDo5NzNjZjMxYS00MGE3LTRmNTItODMzNy1hZDZjZmZmZjhiMDdscmVsYXRpb25zaGlwaHBhcmVudE9mAAAB4mp1bWIAAABBanVtZGNib3IAEQAQgAAAqgA4m3ETYzJwYS5hY3Rpb25zLnYyAAAAABhjMnNo4rMaEQxwKpdCKJstMicZ6wAAAZljYm9yomdhY3Rpb25zgqJmYWN0aW9ua2MycGEub3BlbmVkanBhcmFtZXRlcnOha2luZ3JlZGllbnRzgaJjdXJseC1zZWxmI2p1bWJmPWMycGEuYXNzZXJ0aW9ucy9jMnBhLmluZ3JlZGllbnQudjNkaGFzaFggzv0KKCpp/bWiKZx3fH+zh9w/OOpWfKrVFj61hEfsJGqkZmFjdGlvbngdY29tLmFudGhyb3BpYy5jbGF1ZGUucHJvdmlkZWRqcGFyYW1ldGVyc6F4H2NvbS5hbnRocm9waWMub3JpZ2luLWNvbmZpZGVuY2VndW5rbm93bmtkZXNjcmlwdGlvbnhmQ2xhdWRlIHByb3ZpZGVkIHRoaXMgZmlsZSBhdCB0aGUgcmVxdWVzdCBvZiBhIHVzZXIgYW5kIG1heSBoYXZlIGNyZWF0ZWQgb3IgbW9kaWZpZWQgdGhlIGZpbGUgY29udGVudHMubXNvZnR3YXJlQWdlbnShZG5hbWVmQ2xhdWRlcmFsbEFjdGlvbnNJbmNsdWRlZPUAAADIanVtYgAAAEBqdW1kY2JvcgARABCAAACqADibcRNjMnBhLmhhc2guZGF0YQAAAAAYYzJzaBEGST5fmFhrrdH6ZEn+gt4AAACAY2JvcqVjYWxnZnNoYTI1NmNwYWRNAAAAAAAAAAAAAAAAAGRoYXNoWCDhOh7NEJgXht6UlCO1bdYw4a0O+sr82ipk7lOW6ry662RuYW1lbmp1bWJmIG1hbmlmZXN0amV4Y2x1c2lvbnOBomVzdGFydBiLZmxlbmd0aBkeBAAAAj5qdW1iAAAAJ2p1bWRjMmNsABEAEIAAAKoAOJtxA2MycGEuY2xhaW0udjIAAAACD2Nib3KlY2FsZ2ZzaGEyNTZpc2lnbmF0dXJleE1zZWxmI2p1bWJmPS9jMnBhL3VybjpjMnBhOjIyOTM1Yzg0LWQwODktNDQ5OS04NjAzLWNhMWVlYzk1YWIyYi9jMnBhLnNpZ25hdHVyZWppbnN0YW5jZUlEeCx4bXA6aWlkOmNkYjQ4NWNmLTQxNzMtNDdlMC04MWE0LTliNzdlMTdhZWYxMnJjcmVhdGVkX2Fzc2VydGlvbnODomN1cmx4LXNlbGYjanVtYmY9YzJwYS5hc3NlcnRpb25zL2MycGEuaW5ncmVkaWVudC52M2RoYXNoWCDO/QooKmn9taIpnHd8f7OH3D846lZ8qtUWPrWER+wkaqJjdXJseCpzZWxmI2p1bWJmPWMycGEuYXNzZXJ0aW9ucy9jMnBhLmFjdGlvbnMudjJkaGFzaFggNc5LJAMPRq5UrQo8bQ3Fh2RG69dFuY1OMVSR+8J3fsSiY3VybHgpc2VsZiNqdW1iZj1jMnBhLmFzc2VydGlvbnMvYzJwYS5oYXNoLmRhdGFkaGFzaFgg7pm5PZsSC7wHFNF/9PiEDjmtgxb8WG8eCSpnjbCXdkJ0Y2xhaW1fZ2VuZXJhdG9yX2luZm+jZG5hbWVvQW50aHJvcGljIEZpbGVzZ3ZlcnNpb25lMS4wLjBrc3BlY1ZlcnNpb25lMi40LjAAABA4anVtYgAAAChqdW1kYzJjcwARABCAAACqADibcQNjMnBhLnNpZ25hdHVyZQAAABAIY2JvctKEWQISogEmGCFZAgowggIGMIIBjaADAgECAhRA5aAK7sI50L64g/oGQgU9Z1UTADAKBggqhkjOPQQDAzBJMRcwFQYDVQQKEw5BbnRocm9waWMsIFBCQzEuMCwGA1UEAxMlQW50aHJvcGljIENvbnRlbnQgQ3JlZGVudGlhbHMgUm9vdCBDQTAeFw0yNjA4MDcxODQzNTZaFw0yODA4MDYxOTQzNTZaMEQxFzAVBgNVBAoTDkFudGhyb3BpYywgUEJDMSkwJwYDVQQDEyBBbnRocm9waWMgQ2xhdWRlIENvbnRlbnQgU2lnbmluZzBZMBMGByqGSM49AgEGCCqGSM49AwEHA0IABJh6CmvLUBgFFNU0vUKlOVtE6djd17L5SuwX0LemFisBM3dkd/3cyjxFA3Qo5S46fX0/ihY0VZ7mfb9KF703t5OjWDBWMA4GA1UdDwEB/wQEAwIHgDAVBgNVHSUEDjAMBgorBgEEAYPoXgIBMAwGA1UdEwEB/wQCMAAwHwYDVR0jBBgwFoAUzlHiBIFOZFsj+OPEz5o+nMHXXMIwCgYIKoZIzj0EAwMDZwAwZAIwMXMdFJ4BetLLVY7ORuE9noqbbAZOZn/aArXyTwFAZfKrPzxF2vPoJNf1+UCdg1XGAjBwX1zd9WGqYkqmL5SFqw1QySjr1zJfpJM9+1rdDwSPLMOPOjKuiXjoU/pUUeG9RwmhY3BhZFkNngAAAAAAAAAAAAAAAAAAAAAAAAAAAAAAAAAAAAAAAAAAAAAAAAAAAAAAAAAAAAAAAAAAAAAAAAAAAAAAAAAAAAAAAAAAAAAAAAAAAAAAAAAAAAAAAAAAAAAAAAAAAAAAAAAAAAAAAAAAAAAAAAAAAAAAAAAAAAAAAAAAAAAAAAAAAAAAAAAAAAAAAAAAAAAAAAAAAAAAAAAAAAAAAAAAAAAAAAAAAAAAAAAAAAAAAAAAAAAAAAAAAAAAAAAAAAAAAAAAAAAAAAAAAAAAAAAAAAAAAAAAAAAAAAAAAAAAAAAAAAAAAAAAAAAAAAAAAAAAAAAAAAAAAAAAAAAAAAAAAAAAAAAAAAAAAAAAAAAAAAAAAAAAAAAAAAAAAAAAAAAAAAAAAAAAAAAAAAAAAAAAAAAAAAAAAAAAAAAAAAAAAAAAAAAAAAAAAAAAAAAAAAAAAAAAAAAAAAAAAAAAAAAAAAAAAAAAAAAAAAAAAAAAAAAAAAAAAAAAAAAAAAAAAAAAAAAAAAAAAAAAAAAAAAAAAAAAAAAAAAAAAAAAAAAAAAAAAAAAAAAAAAAAAAAAAAAAAAAAAAAAAAAAAAAAAAAAAAAAAAAAAAAAAAAAAAAAAAAAAAAAAAAAAAAAAAAAAAAAAAAAAAAAAAAAAAAAAAAAAAAAAAAAAAAAAAAAAAAAAAAAAAAAAAAAAAAAAAAAAAAAAAAAAAAAAAAAAAAAAAAAAAAAAAAAAAAAAAAAAAAAAAAAAAAAAAAAAAAAAAAAAAAAAAAAAAAAAAAAAAAAAAAAAAAAAAAAAAAAAAAAAAAAAAAAAAAAAAAAAAAAAAAAAAAAAAAAAAAAAAAAAAAAAAAAAAAAAAAAAAAAAAAAAAAAAAAAAAAAAAAAAAAAAAAAAAAAAAAAAAAAAAAAAAAAAAAAAAAAAAAAAAAAAAAAAAAAAAAAAAAAAAAAAAAAAAAAAAAAAAAAAAAAAAAAAAAAAAAAAAAAAAAAAAAAAAAAAAAAAAAAAAAAAAAAAAAAAAAAAAAAAAAAAAAAAAAAAAAAAAAAAAAAAAAAAAAAAAAAAAAAAAAAAAAAAAAAAAAAAAAAAAAAAAAAAAAAAAAAAAAAAAAAAAAAAAAAAAAAAAAAAAAAAAAAAAAAAAAAAAAAAAAAAAAAAAAAAAAAAAAAAAAAAAAAAAAAAAAAAAAAAAAAAAAAAAAAAAAAAAAAAAAAAAAAAAAAAAAAAAAAAAAAAAAAAAAAAAAAAAAAAAAAAAAAAAAAAAAAAAAAAAAAAAAAAAAAAAAAAAAAAAAAAAAAAAAAAAAAAAAAAAAAAAAAAAAAAAAAAAAAAAAAAAAAAAAAAAAAAAAAAAAAAAAAAAAAAAAAAAAAAAAAAAAAAAAAAAAAAAAAAAAAAAAAAAAAAAAAAAAAAAAAAAAAAAAAAAAAAAAAAAAAAAAAAAAAAAAAAAAAAAAAAAAAAAAAAAAAAAAAAAAAAAAAAAAAAAAAAAAAAAAAAAAAAAAAAAAAAAAAAAAAAAAAAAAAAAAAAAAAAAAAAAAAAAAAAAAAAAAAAAAAAAAAAAAAAAAAAAAAAAAAAAAAAAAAAAAAAAAAAAAAAAAAAAAAAAAAAAAAAAAAAAAAAAAAAAAAAAAAAAAAAAAAAAAAAAAAAAAAAAAAAAAAAAAAAAAAAAAAAAAAAAAAAAAAAAAAAAAAAAAAAAAAAAAAAAAAAAAAAAAAAAAAAAAAAAAAAAAAAAAAAAAAAAAAAAAAAAAAAAAAAAAAAAAAAAAAAAAAAAAAAAAAAAAAAAAAAAAAAAAAAAAAAAAAAAAAAAAAAAAAAAAAAAAAAAAAAAAAAAAAAAAAAAAAAAAAAAAAAAAAAAAAAAAAAAAAAAAAAAAAAAAAAAAAAAAAAAAAAAAAAAAAAAAAAAAAAAAAAAAAAAAAAAAAAAAAAAAAAAAAAAAAAAAAAAAAAAAAAAAAAAAAAAAAAAAAAAAAAAAAAAAAAAAAAAAAAAAAAAAAAAAAAAAAAAAAAAAAAAAAAAAAAAAAAAAAAAAAAAAAAAAAAAAAAAAAAAAAAAAAAAAAAAAAAAAAAAAAAAAAAAAAAAAAAAAAAAAAAAAAAAAAAAAAAAAAAAAAAAAAAAAAAAAAAAAAAAAAAAAAAAAAAAAAAAAAAAAAAAAAAAAAAAAAAAAAAAAAAAAAAAAAAAAAAAAAAAAAAAAAAAAAAAAAAAAAAAAAAAAAAAAAAAAAAAAAAAAAAAAAAAAAAAAAAAAAAAAAAAAAAAAAAAAAAAAAAAAAAAAAAAAAAAAAAAAAAAAAAAAAAAAAAAAAAAAAAAAAAAAAAAAAAAAAAAAAAAAAAAAAAAAAAAAAAAAAAAAAAAAAAAAAAAAAAAAAAAAAAAAAAAAAAAAAAAAAAAAAAAAAAAAAAAAAAAAAAAAAAAAAAAAAAAAAAAAAAAAAAAAAAAAAAAAAAAAAAAAAAAAAAAAAAAAAAAAAAAAAAAAAAAAAAAAAAAAAAAAAAAAAAAAAAAAAAAAAAAAAAAAAAAAAAAAAAAAAAAAAAAAAAAAAAAAAAAAAAAAAAAAAAAAAAAAAAAAAAAAAAAAAAAAAAAAAAAAAAAAAAAAAAAAAAAAAAAAAAAAAAAAAAAAAAAAAAAAAAAAAAAAAAAAAAAAAAAAAAAAAAAAAAAAAAAAAAAAAAAAAAAAAAAAAAAAAAAAAAAAAAAAAAAAAAAAAAAAAAAAAAAAAAAAAAAAAAAAAAAAAAAAAAAAAAAAAAAAAAAAAAAAAAAAAAAAAAAAAAAAAAAAAAAAAAAAAAAAAAAAAAAAAAAAAAAAAAAAAAAAAAAAAAAAAAAAAAAAAAAAAAAAAAAAAAAAAAAAAAAAAAAAAAAAAAAAAAAAAAAAAAAAAAAAAAAAAAAAAAAAAAAAAAAAAAAAAAAAAAAAAAAAAAAAAAAAAAAAAAAAAAAAAAAAAAAAAAAAAAAAAAAAAAAAAAAAAAAAAAAAAAAAAAAAAAAAAAAAAAAAAAAAAAAAAAAAAAAAAAAAAAAAAAAAAAAAAAAAAAAAAAAAAAAAAAAAAAAAAAAAAAAAAAAAAAAAAAAAAAAAAAAAAAAAAAAAAAAAAAAAAAAAAAAAAAAAAAAAAAAAAAAAAAAAAAAAAAAAAAAAAAAAAAAAAAAAAAAAAAAAAAAAAAAAAAAAAAAAAAAAAAAAAAAAAAAAAAAAAAAAAAAAAAAAAAAAAAAAAAAAAAAAAAAAAAAAAAAAAAAAAAAAAAAAAAAAAAAAAAAAAAAAAAAAAAAAAAAAAAAAAAAAAAAAAAAAAAAAAAAAAAAAAAAAAAAAAAAAAAAAAAAAAAAAAAAAAAAAAAAAAAAAAAAAAAAAAAAAAAAAAAAAAAAAAAAAAAAAAAAAAAAAAAAAAAAAAAAAAAAAAAAAAAAAAAAAAAAAAAAAAAAAAAAAAAAAAAAAAAAAAAAAAAAAAAAAAAAAAAAAAAAAAAAAAAAAAAAAAAAAAAAAAAAAAAAAAAAAAAAAAAAAAAAAAAAAAAAAAAAAAAAAAAAAAAAAAAAAAAAAAAAAAAAAAAAAAAAAAAAAAAAAAAAAAAAAAAAAAAAAAAAAAAAAAAAAAAAAAAAAAAAAAAAAAAAAAAAAAAAAAAAAAAAAAAAAAAAAAAAAAAAAAAAAAAAAAAAAAAAAAAAAAAAAAAAAAAAAAAAAAAAAAAAAAAAAAAAAAAAAAAAAAAAAAAAAAAAAAAAAAAAAAAAAAAAAAAAAAAAAAAAAAAAAAAAAAAAAAAAAAAAAAAAAAAAAAAAAAAAAAAAAAAAAAAAAAAAAAAAAAAAAAAAAAAAAAAAAAAAAAAAAAAAAAAAAAAAAAAAAAAAAAAAAAAAAAAAAAAAAAAAAAAAAAAAAAAAAAAAAAAAAAAAAAAAAAAAAAAAAAAAAAAAAAAAAAAAAAAAAAAAAAAAAAAAAAAAAAAAAAAAAAAAAAAAAAAAAAAAAAAAAAAAAAAAAAAAAAAAAAAAAAAAAAAAAAAAAAAAAAAAAAAAAAAAAAAAAAAAAAAAAAAAAAAAAAAAAAAAAAAAAAAAAAAAAAAAAAAAAAAAAAAAAAAAAAAAAAAAAAAAAAAAAAAAAAAAAAAAAAAAAAAAAAAAAAAAAAAAAAAAAAAAAAAAAAAAAAAAAAAAAAAAAAAAAAAAAAAAAAAAAAAAAAAAAAAAAAAAAAAAAAAAAAAAAAAAAAAAAAAAAAAAAAAAAAAAAAAAAAAAAAAAAAAAAAAAAAAAAAAAAAAAAAAAAAAAAAAAAAAAAAAAAAAAAAAAAAAAAAAAAAAAAAAAAAAAAAAAAAAAAAAAAAAAAAAAAAAAAAAAAAAAAAAAAAAAAAAAAAAAAAAAAAAAAAAAAAAAAAAAAAAAAAAAAAAAAAAAAAAAAAAAAAAAAAAAAAAAAAAAAAAAAAAAAAAAAAAAAAAAAAAAAAAAAAAAAAAAAAAAAAAAAAAAAAAAAAAAAAAAAAAAAAAAAAAAAAAAAAAAAAAAAAAAAAAAAAAAAAAAAAAAAAAAAAAAAAAAAAAAAAAAAAAAAAAAAAAAAAAAAAAAAAAAAAAAAAAAAAAAAAAAAAAAAAAAAAAAAAAAAAAAAAAAAAAAAAAAAAAAAAAAAAAAAAAAAAAAAAAAAAAAAAAAAAAAAAAAAAAAAAAAAAAAAAAAAAAAAAAAAAAPZYQMPA4nc3thCjk5C+iWqAzsjkBv3YU2UPKOjl/mWSPgklGOTJfMEU6RW6vJqJJ/IdkRPeA38OQrp38tYbBssLwPE=</c2pa:manifest></metadata><defs><linearGradient id="tb05-c" gradientUnits="userSpaceOnUse" x1="-176" y1="-176" x2="176" y2="176"><stop offset="0" stop-color="#19D6C4"/><stop offset="1" stop-color="#14529E"/></linearGradient><linearGradient id="tb05-g" x1="0" y1="0" x2="0" y2="1"><stop offset="0" stop-color="#FFF0B8"/><stop offset="1" stop-color="#E0B450"/></linearGradient></defs><path d="M-114.3,-54.2 L-115.3,-54.9 L-116.8,-55.7 L-118.5,-56.1 L-120.3,-56.3 L-122.0,-56.0 L-123.7,-55.5 L-125.2,-54.6 L-126.3,-53.7 L-173.5,-6.5 L-174.2,-5.7 L-174.9,-4.7 L-175.5,-3.7 L-175.9,-2.6 L-176.1,-1.5 L-176.3,0.3 L-176.1,1.5 L-175.9,2.6 L-175.5,3.7 L-174.6,5.2 L-173.5,6.5 L-126.3,53.7 L-125.2,54.6 L-123.7,55.5 L-122.0,56.0 L-120.9,56.2 L-119.7,56.3 L-118.5,56.1 L-116.8,55.7 L-115.2,54.9 L-113.9,53.8 L-72.7,12.7 L-71.0,11.2 L-69.0,9.9 L-68.0,9.3 L-65.8,8.4 L-63.5,7.8 L-62.3,7.6 L-60.0,7.5 L-57.7,7.6 L-55.3,8.1 L-54.2,8.4 L-52.0,9.3 L-50.0,10.5 L-49.0,11.2 L-47.3,12.7 L-11.9,48.1 L-10.5,50.0 L-9.9,51.0 L-9.3,52.0 L-8.4,54.2 L-7.8,56.5 L-7.6,57.7 L-7.5,60.0 L-7.5,61.2 L-7.8,63.5 L-8.4,65.8 L-8.8,66.9 L-9.3,68.0 L-10.5,70.0 L-11.9,71.9 L-53.5,113.5 L-54.2,114.3 L-54.9,115.3 L-55.5,116.3 L-55.9,117.4 L-56.1,118.5 L-56.3,120.3 L-56.1,121.5 L-55.9,122.6 L-55.5,123.7 L-54.9,124.8 L-54.2,125.7 L-53.5,126.5 L-6.5,173.5 L-5.2,174.6 L-4.2,175.2 L-2.6,175.9 L-1.5,176.1 L0.3,176.3 L1.5,176.1 L2.6,175.9 L3.7,175.5 L4.8,174.9 L6.1,173.8 L53.5,126.5 L54.2,125.7 L54.9,124.7 L55.5,123.7 L55.9,122.6 L56.1,121.5 L56.3,120.3 L56.1,118.5 L55.9,117.4 L55.5,116.3 L54.9,115.2 L54.2,114.3 L53.5,113.5 L11.9,71.9 L11.2,71.0 L9.9,69.0 L8.8,66.9 L8.4,65.8 L7.8,63.5 L7.5,61.2 L7.5,60.0 L7.6,57.7 L7.8,56.5 L8.4,54.2 L8.8,53.1 L9.9,51.0 L11.2,49.0 L11.9,48.1 L47.3,12.7 L49.0,11.2 L50.0,10.5 L52.0,9.3 L54.2,8.4 L55.3,8.1 L57.7,7.6 L60.0,7.5 L62.3,7.6 L63.5,7.8 L65.8,8.4 L68.0,9.3 L69.0,9.9 L71.0,11.2 L72.7,12.7 L113.9,53.8 L115.3,54.9 L116.8,55.7 L118.5,56.1 L119.7,56.3 L120.9,56.2 L122.6,55.9 L123.7,55.5 L125.2,54.6 L126.5,53.5 L173.7,6.3 L174.6,5.2 L175.2,4.2 L175.9,2.6 L176.1,1.5 L176.3,-0.3 L176.1,-1.5 L175.9,-2.6 L175.5,-3.7 L174.9,-4.8 L173.8,-6.1 L126.5,-53.5 L125.7,-54.2 L124.7,-54.9 L123.7,-55.5 L122.6,-55.9 L121.5,-56.1 L120.3,-56.3 L118.5,-56.1 L117.4,-55.9 L116.3,-55.5 L115.2,-54.9 L114.3,-54.2 L113.5,-53.5 L71.9,-11.9 L70.0,-10.5 L68.0,-9.3 L66.9,-8.8 L64.7,-8.1 L63.5,-7.8 L61.2,-7.5 L60.0,-7.5 L57.7,-7.6 L55.3,-8.1 L54.2,-8.4 L52.0,-9.3 L51.0,-9.9 L49.0,-11.2 L48.1,-11.9 L12.7,-47.3 L11.2,-49.0 L10.5,-50.0 L9.3,-52.0 L8.8,-53.1 L8.1,-55.3 L7.6,-57.7 L7.5,-60.0 L7.6,-62.3 L7.8,-63.5 L8.4,-65.8 L8.8,-66.9 L9.9,-69.0 L11.2,-71.0 L12.7,-72.7 L53.8,-113.9 L54.9,-115.3 L55.7,-116.8 L56.1,-118.5 L56.3,-119.7 L56.2,-120.9 L55.9,-122.6 L55.5,-123.7 L54.6,-125.2 L53.5,-126.5 L6.3,-173.7 L5.2,-174.6 L4.2,-175.2 L2.6,-175.9 L1.5,-176.1 L-0.3,-176.3 L-1.5,-176.1 L-2.6,-175.9 L-3.7,-175.5 L-4.8,-174.9 L-5.7,-174.2 L-6.3,-173.7 L-53.7,-126.3 L-54.6,-125.2 L-55.5,-123.7 L-56.0,-122.0 L-56.2,-120.9 L-56.3,-119.7 L-56.1,-118.5 L-55.7,-116.8 L-54.9,-115.2 L-53.8,-113.9 L-12.7,-72.7 L-11.2,-71.0 L-9.9,-69.0 L-8.8,-66.9 L-8.1,-64.7 L-7.8,-63.5 L-7.5,-61.2 L-7.5,-60.0 L-7.6,-57.7 L-7.8,-56.5 L-8.4,-54.2 L-9.3,-52.0 L-10.5,-50.0 L-11.9,-48.1 L-12.7,-47.3 L-48.1,-11.9 L-50.0,-10.5 L-51.0,-9.9 L-52.0,-9.3 L-54.2,-8.4 L-56.5,-7.8 L-57.7,-7.6 L-60.0,-7.5 L-61.2,-7.5 L-62.3,-7.6 L-64.7,-8.1 L-66.9,-8.8 L-68.0,-9.3 L-70.0,-10.5 L-71.9,-11.9 L-113.5,-53.5Z" fill="url(#tb05-c)"/><path d="M65.7,-96.0 L64.4,-97.0 L63.5,-97.5 L62.1,-98.0 L60.5,-98.3 L59.0,-98.2 L57.4,-97.9 L56.0,-97.2 L55.1,-96.6 L54.3,-96.0 L23.7,-65.3 L23.0,-64.4 L22.3,-63.1 L22.0,-62.1 L21.7,-60.5 L21.8,-59.0 L22.1,-57.4 L22.8,-56.0 L23.4,-55.1 L24.0,-54.3 L54.7,-23.7 L55.6,-23.0 L56.9,-22.3 L57.9,-22.0 L59.5,-21.7 L61.0,-21.8 L62.6,-22.1 L63.5,-22.5 L64.4,-23.0 L65.7,-24.0 L96.3,-54.7 L97.2,-56.0 L97.7,-56.9 L98.1,-58.4 L98.3,-59.5 L98.2,-61.0 L97.9,-62.6 L97.2,-64.0 L96.3,-65.3Z" fill="url(#tb05-g)"/><path d="M-54.3,24.0 L-55.1,23.4 L-56.5,22.5 L-57.9,22.0 L-59.5,21.7 L-61.0,21.8 L-62.6,22.1 L-63.5,22.5 L-64.9,23.4 L-65.7,24.0 L-96.3,54.7 L-97.2,56.0 L-97.7,56.9 L-98.1,58.4 L-98.3,59.5 L-98.2,61.0 L-97.9,62.6 L-97.2,64.0 L-96.6,64.9 L-96.0,65.7 L-65.3,96.3 L-64.0,97.2 L-63.1,97.7 L-61.6,98.1 L-60.5,98.3 L-59.0,98.2 L-57.4,97.9 L-56.0,97.2 L-55.1,96.6 L-54.3,96.0 L-23.7,65.3 L-23.0,64.4 L-22.3,63.1 L-22.0,62.1 L-21.7,60.5 L-21.8,59.0 L-22.1,57.4 L-22.8,56.0 L-23.7,54.7Z" fill="url(#tb05-g)"/></svg>