<svg xmlns="http://www.w3.org/2000/svg" viewBox="-72.3 -120.3 192.6 427.1" xmlns:c2pa="http://c2pa.org/manifest"><metadata><c2pa:manifest>AAAWgmp1bWIAAAAeanVtZGMycGEAEQAQgAAAqgA4m3EDYzJwYQAAABZcanVtYgAAAEdqdW1kYzJtYQARABCAAACqADibcQN1cm46YzJwYToxNDY2ODVkZi1hNjkzLTQ0NjItOWY0Ni1iNjM2NzZjZGZjMjAAAAADl2p1bWIAAAApanVtZGMyYXMAEQAQgAAAqgA4m3EDYzJwYS5hc3NlcnRpb25zAAAAALxqdW1iAAAARGp1bWRjYm9yABEAEIAAAKoAOJtxE2MycGEuaW5ncmVkaWVudC52MwAAAAAYYzJzaAClLNeGkEfBqnaXniJTUmoAAABwY2JvcqNpZGM6Zm9ybWF0bWltYWdlL3N2Zyt4bWxqaW5zdGFuY2VJRHgseG1wOmlpZDo3ZjNiNmJlYS0xODJkLTRmN2EtOWJiZi1mNGFkNDVhM2Y4ZjFscmVsYXRpb25zaGlwaHBhcmVudE9mAAAB4mp1bWIAAABBanVtZGNib3IAEQAQgAAAqgA4m3ETYzJwYS5hY3Rpb25zLnYyAAAAABhjMnNo7j7xJDgRlWFaW8E60++LKAAAAZljYm9yomdhY3Rpb25zgqJmYWN0aW9ua2MycGEub3BlbmVkanBhcmFtZXRlcnOha2luZ3JlZGllbnRzgaJjdXJseC1zZWxmI2p1bWJmPWMycGEuYXNzZXJ0aW9ucy9jMnBhLmluZ3JlZGllbnQudjNkaGFzaFggi6Qd25UJaeiVjGhVvPRenI3ldh0frkv/7nQoA1pogh+kZmFjdGlvbngdY29tLmFudGhyb3BpYy5jbGF1ZGUucHJvdmlkZWRqcGFyYW1ldGVyc6F4H2NvbS5hbnRocm9waWMub3JpZ2luLWNvbmZpZGVuY2VndW5rbm93bmtkZXNjcmlwdGlvbnhmQ2xhdWRlIHByb3ZpZGVkIHRoaXMgZmlsZSBhdCB0aGUgcmVxdWVzdCBvZiBhIHVzZXIgYW5kIG1heSBoYXZlIGNyZWF0ZWQgb3IgbW9kaWZpZWQgdGhlIGZpbGUgY29udGVudHMubXNvZnR3YXJlQWdlbnShZG5hbWVmQ2xhdWRlcmFsbEFjdGlvbnNJbmNsdWRlZPUAAADIanVtYgAAAEBqdW1kY2JvcgARABCAAACqADibcRNjMnBhLmhhc2guZGF0YQAAAAAYYzJzaAz63RSndsoPsYZicA1JhAEAAACAY2JvcqVjYWxnZnNoYTI1NmNwYWRNAAAAAAAAAAAAAAAAAGRoYXNoWCD03ZgXI34/L0f9yqj5tkY60s0OwEVliEY18hhHUzTsBmRuYW1lbmp1bWJmIG1hbmlmZXN0amV4Y2x1c2lvbnOBomVzdGFydBiKZmxlbmd0aBkeBAAAAj5qdW1iAAAAJ2p1bWRjMmNsABEAEIAAAKoAOJtxA2MycGEuY2xhaW0udjIAAAACD2Nib3KlY2FsZ2ZzaGEyNTZpc2lnbmF0dXJleE1zZWxmI2p1bWJmPS9jMnBhL3VybjpjMnBhOjE0NjY4NWRmLWE2OTMtNDQ2Mi05ZjQ2LWI2MzY3NmNkZmMyMC9jMnBhLnNpZ25hdHVyZWppbnN0YW5jZUlEeCx4bXA6aWlkOmY5NjAwOWRlLWY4OTAtNDQ1Ni05ZWM3LTQwM2EzMTMyNTM3ZnJjcmVhdGVkX2Fzc2VydGlvbnODomN1cmx4LXNlbGYjanVtYmY9YzJwYS5hc3NlcnRpb25zL2MycGEuaW5ncmVkaWVudC52M2RoYXNoWCCLpB3blQlp6JWMaFW89F6cjeV2HR+uS//udCgDWmiCH6JjdXJseCpzZWxmI2p1bWJmPWMycGEuYXNzZXJ0aW9ucy9jMnBhLmFjdGlvbnMudjJkaGFzaFggUG5R46SZh3v85mw0srNmcH37GgfGK6qgQ7KpIDq9sxCiY3VybHgpc2VsZiNqdW1iZj1jMnBhLmFzc2VydGlvbnMvYzJwYS5oYXNoLmRhdGFkaGFzaFggi9YbgWtJDwp7b4OCwUuemWd6y1zqwCrErexiRaD/p8p0Y2xhaW1fZ2VuZXJhdG9yX2luZm+jZG5hbWVvQW50aHJvcGljIEZpbGVzZ3ZlcnNpb25lMS4wLjBrc3BlY1ZlcnNpb25lMi40LjAAABA4anVtYgAAAChqdW1kYzJjcwARABCAAACqADibcQNjMnBhLnNpZ25hdHVyZQAAABAIY2JvctKEWQISogEmGCFZAgowggIGMIIBjaADAgECAhRA5aAK7sI50L64g/oGQgU9Z1UTADAKBggqhkjOPQQDAzBJMRcwFQYDVQQKEw5BbnRocm9waWMsIFBCQzEuMCwGA1UEAxMlQW50aHJvcGljIENvbnRlbnQgQ3JlZGVudGlhbHMgUm9vdCBDQTAeFw0yNjA4MDcxODQzNTZaFw0yODA4MDYxOTQzNTZaMEQxFzAVBgNVBAoTDkFudGhyb3BpYywgUEJDMSkwJwYDVQQDEyBBbnRocm9waWMgQ2xhdWRlIENvbnRlbnQgU2lnbmluZzBZMBMGByqGSM49AgEGCCqGSM49AwEHA0IABJh6CmvLUBgFFNU0vUKlOVtE6djd17L5SuwX0LemFisBM3dkd/3cyjxFA3Qo5S46fX0/ihY0VZ7mfb9KF703t5OjWDBWMA4GA1UdDwEB/wQEAwIHgDAVBgNVHSUEDjAMBgorBgEEAYPoXgIBMAwGA1UdEwEB/wQCMAAwHwYDVR0jBBgwFoAUzlHiBIFOZFsj+OPEz5o+nMHXXMIwCgYIKoZIzj0EAwMDZwAwZAIwMXMdFJ4BetLLVY7ORuE9noqbbAZOZn/aArXyTwFAZfKrPzxF2vPoJNf1+UCdg1XGAjBwX1zd9WGqYkqmL5SFqw1QySjr1zJfpJM9+1rdDwSPLMOPOjKuiXjoU/pUUeG9RwmhY3BhZFkNngAAAAAAAAAAAAAAAAAAAAAAAAAAAAAAAAAAAAAAAAAAAAAAAAAAAAAAAAAAAAAAAAAAAAAAAAAAAAAAAAAAAAAAAAAAAAAAAAAAAAAAAAAAAAAAAAAAAAAAAAAAAAAAAAAAAAAAAAAAAAAAAAAAAAAAAAAAAAAAAAAAAAAAAAAAAAAAAAAAAAAAAAAAAAAAAAAAAAAAAAAAAAAAAAAAAAAAAAAAAAAAAAAAAAAAAAAAAAAAAAAAAAAAAAAAAAAAAAAAAAAAAAAAAAAAAAAAAAAAAAAAAAAAAAAAAAAAAAAAAAAAAAAAAAAAAAAAAAAAAAAAAAAAAAAAAAAAAAAAAAAAAAAAAAAAAAAAAAAAAAAAAAAAAAAAAAAAAAAAAAAAAAAAAAAAAAAAAAAAAAAAAAAAAAAAAAAAAAAAAAAAAAAAAAAAAAAAAAAAAAAAAAAAAAAAAAAAAAAAAAAAAAAAAAAAAAAAAAAAAAAAAAAAAAAAAAAAAAAAAAAAAAAAAAAAAAAAAAAAAAAAAAAAAAAAAAAAAAAAAAAAAAAAAAAAAAAAAAAAAAAAAAAAAAAAAAAAAAAAAAAAAAAAAAAAAAAAAAAAAAAAAAAAAAAAAAAAAAAAAAAAAAAAAAAAAAAAAAAAAAAAAAAAAAAAAAAAAAAAAAAAAAAAAAAAAAAAAAAAAAAAAAAAAAAAAAAAAAAAAAAAAAAAAAAAAAAAAAAAAAAAAAAAAAAAAAAAAAAAAAAAAAAAAAAAAAAAAAAAAAAAAAAAAAAAAAAAAAAAAAAAAAAAAAAAAAAAAAAAAAAAAAAAAAAAAAAAAAAAAAAAAAAAAAAAAAAAAAAAAAAAAAAAAAAAAAAAAAAAAAAAAAAAAAAAAAAAAAAAAAAAAAAAAAAAAAAAAAAAAAAAAAAAAAAAAAAAAAAAAAAAAAAAAAAAAAAAAAAAAAAAAAAAAAAAAAAAAAAAAAAAAAAAAAAAAAAAAAAAAAAAAAAAAAAAAAAAAAAAAAAAAAAAAAAAAAAAAAAAAAAAAAAAAAAAAAAAAAAAAAAAAAAAAAAAAAAAAAAAAAAAAAAAAAAAAAAAAAAAAAAAAAAAAAAAAAAAAAAAAAAAAAAAAAAAAAAAAAAAAAAAAAAAAAAAAAAAAAAAAAAAAAAAAAAAAAAAAAAAAAAAAAAAAAAAAAAAAAAAAAAAAAAAAAAAAAAAAAAAAAAAAAAAAAAAAAAAAAAAAAAAAAAAAAAAAAAAAAAAAAAAAAAAAAAAAAAAAAAAAAAAAAAAAAAAAAAAAAAAAAAAAAAAAAAAAAAAAAAAAAAAAAAAAAAAAAAAAAAAAAAAAAAAAAAAAAAAAAAAAAAAAAAAAAAAAAAAAAAAAAAAAAAAAAAAAAAAAAAAAAAAAAAAAAAAAAAAAAAAAAAAAAAAAAAAAAAAAAAAAAAAAAAAAAAAAAAAAAAAAAAAAAAAAAAAAAAAAAAAAAAAAAAAAAAAAAAAAAAAAAAAAAAAAAAAAAAAAAAAAAAAAAAAAAAAAAAAAAAAAAAAAAAAAAAAAAAAAAAAAAAAAAAAAAAAAAAAAAAAAAAAAAAAAAAAAAAAAAAAAAAAAAAAAAAAAAAAAAAAAAAAAAAAAAAAAAAAAAAAAAAAAAAAAAAAAAAAAAAAAAAAAAAAAAAAAAAAAAAAAAAAAAAAAAAAAAAAAAAAAAAAAAAAAAAAAAAAAAAAAAAAAAAAAAAAAAAAAAAAAAAAAAAAAAAAAAAAAAAAAAAAAAAAAAAAAAAAAAAAAAAAAAAAAAAAAAAAAAAAAAAAAAAAAAAAAAAAAAAAAAAAAAAAAAAAAAAAAAAAAAAAAAAAAAAAAAAAAAAAAAAAAAAAAAAAAAAAAAAAAAAAAAAAAAAAAAAAAAAAAAAAAAAAAAAAAAAAAAAAAAAAAAAAAAAAAAAAAAAAAAAAAAAAAAAAAAAAAAAAAAAAAAAAAAAAAAAAAAAAAAAAAAAAAAAAAAAAAAAAAAAAAAAAAAAAAAAAAAAAAAAAAAAAAAAAAAAAAAAAAAAAAAAAAAAAAAAAAAAAAAAAAAAAAAAAAAAAAAAAAAAAAAAAAAAAAAAAAAAAAAAAAAAAAAAAAAAAAAAAAAAAAAAAAAAAAAAAAAAAAAAAAAAAAAAAAAAAAAAAAAAAAAAAAAAAAAAAAAAAAAAAAAAAAAAAAAAAAAAAAAAAAAAAAAAAAAAAAAAAAAAAAAAAAAAAAAAAAAAAAAAAAAAAAAAAAAAAAAAAAAAAAAAAAAAAAAAAAAAAAAAAAAAAAAAAAAAAAAAAAAAAAAAAAAAAAAAAAAAAAAAAAAAAAAAAAAAAAAAAAAAAAAAAAAAAAAAAAAAAAAAAAAAAAAAAAAAAAAAAAAAAAAAAAAAAAAAAAAAAAAAAAAAAAAAAAAAAAAAAAAAAAAAAAAAAAAAAAAAAAAAAAAAAAAAAAAAAAAAAAAAAAAAAAAAAAAAAAAAAAAAAAAAAAAAAAAAAAAAAAAAAAAAAAAAAAAAAAAAAAAAAAAAAAAAAAAAAAAAAAAAAAAAAAAAAAAAAAAAAAAAAAAAAAAAAAAAAAAAAAAAAAAAAAAAAAAAAAAAAAAAAAAAAAAAAAAAAAAAAAAAAAAAAAAAAAAAAAAAAAAAAAAAAAAAAAAAAAAAAAAAAAAAAAAAAAAAAAAAAAAAAAAAAAAAAAAAAAAAAAAAAAAAAAAAAAAAAAAAAAAAAAAAAAAAAAAAAAAAAAAAAAAAAAAAAAAAAAAAAAAAAAAAAAAAAAAAAAAAAAAAAAAAAAAAAAAAAAAAAAAAAAAAAAAAAAAAAAAAAAAAAAAAAAAAAAAAAAAAAAAAAAAAAAAAAAAAAAAAAAAAAAAAAAAAAAAAAAAAAAAAAAAAAAAAAAAAAAAAAAAAAAAAAAAAAAAAAAAAAAAAAAAAAAAAAAAAAAAAAAAAAAAAAAAAAAAAAAAAAAAAAAAAAAAAAAAAAAAAAAAAAAAAAAAAAAAAAAAAAAAAAAAAAAAAAAAAAAAAAAAAAAAAAAAAAAAAAAAAAAAAAAAAAAAAAAAAAAAAAAAAAAAAAAAAAAAAAAAAAAAAAAAAAAAAAAAAAAAAAAAAAAAAAAAAAAAAAAAAAAAAAAAAAAAAAAAAAAAAAAAAAAAAAAAAAAAAAAAAAAAAAAAAAAAAAAAAAAAAAAAAAAAAAAAAAAAAAAAAAAAAAAAAAAAAAAAAAAAAAAAAAAAAAAAAAAAAAAAAAAAAAAAAAAAAAAAAAAAAAAAAAAAAAAAAAAAAAAAAAAAAAAAAAAAAAAAAAAAAAAAAAAAAAAAAAAAAAAAAAAAAAAAAAAAAAAAAAAAAAAAAAAAAAAAAAAAAAAAAAAAAAAAAAAAAAAAAAAAAAAAAAAAAAAAAAAAAAAAAAAAAAAAAAAAAAAAAAAAAAAAAAAAAAAAAAAAAAAAAAAAAAAAAAAAAAAAAAAAAAAAAAAAAAAAAAAAAAAAAAAAAAAAAAAAAAAAAAAAAAAAAAAAAAAAAAAAAAAAAAAAAAAAAAAAAAAAAAAAAAAAAAAAAAAAAAAAAAAAAAAAAAAAAAAAAAAAAAAAAAAAAAAAAAAAAAAAAAAAAAAAAAAAAAAAAAAAAAAAAAAAAAAAAAAAAAAAAAAAAAAAAAAAAAAAAAAAAAAAAAAAAAAAAAAAAAAAAAAAAAAAAAAAAAAAAAAAAAAAAAAAAAAAAAAAAAAAAAAAAAAAAAAAAAAAAAAAAAAAAAAAAAAAAAAAAAAAAAAAAAAAAAAAAAAAAAAAAAAAAAAAAAAAAAAAAAAAAAAAAAAAAAAAAAAAAAAAAAAAAAAAAAAAAAAAAAAAAAAAAAAAAAAAAAAAAAAAAAAAAAAAAAAAAAAAAAAAAAAAAAAAAAAAAAAAAAAAAAAAAAAAAAAAAAAAAAAAAAAAAAAAAAAAAAAAAAAAAAAAAAAAAAAAAAAAAAAAAAAAAAAAAAAAAAAAAAAAAAAAAAAAAAAAAAAAAAAAAAAAAAAAAAAAAAAAAAAAAAAAAAAAAAAAAAAAAAAAAAAAAAAAAAAAAAAAAAAAAAAAAAAAAAAAAAAAAAAAAAAAAAAAAAAAAAAAAAAAAAAAAAAAAAAAAAAAAAAAAAAAAAAAAAAAAAAAAAAAAAAAAAAAAAAAAAAAAAAAAAAAAAAAAAAAAAAAAAAAAAAAAAAAAAAAAAAAAAAAAAAAAAAAAAAAAAAAAAAAAAAAAAAAAAAAAAAAAAAAAAAAAAAAAAAAAAAAAAAAAAAAAAAAAAAAAAAAAAAAAAAAAAAAAAAAAAAAAAAAAAAAAAAAAAAAAAAAAAAAAAAAAAAAAAAAAAAAAAAAAAAAAAAAAAAAAAAAAAAAAAAAAAAAAAAAAAAAAAAAAAAAAAAAAAAAAAAAAAAAAAAAAAAAAAAAAAAAAAAAAAAAAAAAAAAAAAAAAAAAAAAAAAAAAAAAAAAAAAAAAAAAAAAAAAAAAAAAAAAAAAAAAAAAAAAAAAAAAAAAAAAAAAAAAAAAAAAAAAAAAAAAAAAAAAAAAAAAAAAAAAAAAAAAAAAAAAAAAAAAAAAAAAAAAAAAAAAAAAAAAAAAAAAAAAAAAAAAAAAAAAAAAAAAAAAAAAAAAAAAAAAAAAAAAAAAAAAAAAAAAAAAAAAAAAAAAAAAAAAAAAAAAAAAAAAAAAAPZYQBLDz96MgYjYx3iud7Kd0nZDWdAzY6ben3HE/uTD8GBF1sSkLffQoWl+/cY8KgJrbw5EZbNmSWcrZOMhzElWjlo=</c2pa:manifest></metadata><defs><linearGradient id="tb09-c" gradientUnits="userSpaceOnUse" x1="0" y1="-110" x2="0" y2="297"><stop offset="0" stop-color="#19D6C4"/><stop offset="1" stop-color="#14529E"/></linearGradient><linearGradient id="tb09-g" x1="0" y1="0" x2="0" y2="1"><stop offset="0" stop-color="#FFF0B8"/><stop offset="1" stop-color="#E0B450"/></linearGradient></defs><path d="M-14.8,281.9 L-14.8,282.5 L-14.6,283.0 L-14.4,283.5 L-13.9,284.1 L-2.0,296.0 L-1.2,296.5 L-0.7,296.7 L-0.1,296.8 L0.5,296.8 L1.0,296.6 L1.5,296.4 L2.0,296.0 L13.9,284.1 L14.4,283.5 L14.6,283.0 L14.8,282.5 L14.8,281.7 L14.6,281.0 L14.3,280.3 L7.2,273.2 L6.5,272.4 L5.9,271.5 L5.2,270.1 L4.9,268.5 L4.8,267.5 L5.0,265.9 L5.2,264.9 L5.6,264.0 L6.2,263.1 L6.8,262.2 L21.2,247.7 L21.8,246.8 L22.1,246.0 L22.2,245.2 L22.2,244.3 L21.8,243.2 L21.6,242.7 L21.0,242.1 L7.2,228.2 L6.5,227.4 L5.6,226.0 L5.2,225.1 L5.0,224.1 L4.8,222.5 L5.0,220.9 L5.2,219.9 L5.6,219.0 L6.2,218.1 L6.8,217.2 L30.0,193.9 L30.7,192.9 L31.2,191.8 L31.4,190.7 L31.4,189.5 L31.3,188.5 L30.9,187.5 L30.5,186.7 L29.9,185.9 L7.2,163.2 L6.5,162.4 L5.6,161.0 L5.2,160.1 L5.0,159.1 L4.8,157.5 L5.0,155.9 L5.2,154.9 L5.9,153.5 L6.5,152.6 L7.2,151.8 L42.2,116.8 L43.0,115.7 L43.7,114.4 L44.2,113.1 L44.4,111.7 L44.4,110.9 L44.4,110.0 L44.2,108.9 L43.9,108.1 L43.6,107.3 L43.2,106.6 L42.7,105.8 L42.2,105.2 L7.2,70.2 L6.5,69.4 L5.6,68.0 L5.2,67.1 L5.0,66.1 L4.8,64.5 L4.9,63.5 L5.1,62.4 L5.4,61.4 L5.9,60.5 L6.5,59.6 L7.2,58.8 L59.9,6.0 L60.8,4.9 L61.3,4.1 L61.6,3.3 L62.1,1.9 L62.3,0.5 L62.3,-0.5 L62.2,-1.3 L62.0,-2.2 L61.6,-3.3 L61.3,-4.1 L60.8,-4.9 L60.3,-5.6 L59.6,-6.4 L6.3,-59.7 L5.1,-60.7 L4.4,-61.1 L3.6,-61.5 L2.8,-61.8 L1.9,-62.1 L0.5,-62.3 L-0.5,-62.3 L-1.6,-62.1 L-2.5,-61.9 L-3.3,-61.6 L-4.1,-61.3 L-4.9,-60.8 L-5.6,-60.3 L-6.4,-59.6 L-59.7,-6.3 L-60.7,-5.1 L-61.1,-4.4 L-61.5,-3.6 L-61.8,-2.8 L-62.1,-1.9 L-62.3,-0.5 L-62.3,0.5 L-62.2,1.3 L-62.0,2.2 L-61.7,3.0 L-61.4,3.9 L-61.0,4.6 L-60.5,5.4 L-59.9,6.0 L-7.2,58.8 L-6.2,60.1 L-5.6,61.0 L-5.2,61.9 L-5.0,62.9 L-4.8,64.5 L-4.9,65.5 L-5.1,66.6 L-5.6,68.0 L-6.2,68.9 L-6.8,69.8 L-42.2,105.2 L-43.0,106.3 L-43.7,107.6 L-44.2,108.9 L-44.3,109.7 L-44.4,110.6 L-44.4,111.4 L-44.3,112.3 L-44.0,113.7 L-43.7,114.4 L-43.3,115.2 L-42.9,115.9 L-42.4,116.6 L-7.2,151.8 L-6.5,152.6 L-5.6,154.0 L-5.2,154.9 L-5.0,155.9 L-4.8,157.5 L-5.0,159.1 L-5.2,160.1 L-5.6,161.0 L-6.5,162.4 L-7.2,163.2 L-29.9,185.9 L-30.5,186.7 L-30.9,187.5 L-31.3,188.5 L-31.4,189.5 L-31.4,190.7 L-31.2,191.8 L-30.7,192.9 L-30.0,193.9 L-6.8,217.2 L-6.2,218.1 L-5.6,219.0 L-5.2,219.9 L-5.0,220.9 L-4.8,222.5 L-5.0,224.1 L-5.2,225.1 L-5.6,226.0 L-6.5,227.4 L-7.2,228.2 L-21.0,242.1 L-21.6,242.7 L-21.8,243.2 L-22.2,244.3 L-22.2,245.2 L-22.1,246.0 L-21.8,246.8 L-21.2,247.7 L-6.8,262.2 L-6.2,263.1 L-5.6,264.0 L-5.2,264.9 L-5.0,265.9 L-4.8,267.5 L-4.9,268.5 L-5.2,270.1 L-5.9,271.5 L-6.5,272.4 L-7.2,273.2 L-14.2,280.2 L-14.6,281.0Z" fill="url(#tb09-c)"/><path d="M71.7,-108.0 L70.4,-109.0 L69.1,-109.7 L67.6,-110.1 L66.0,-110.3 L65.0,-110.2 L63.4,-109.9 L62.0,-109.2 L60.7,-108.3 L23.7,-71.3 L23.0,-70.4 L22.3,-69.1 L22.0,-68.1 L21.7,-66.5 L21.8,-65.0 L22.1,-63.4 L22.8,-62.0 L23.4,-61.1 L24.0,-60.3 L60.7,-23.7 L61.6,-23.0 L62.9,-22.3 L63.9,-22.0 L65.5,-21.7 L67.0,-21.8 L68.6,-22.1 L69.5,-22.5 L70.4,-23.0 L71.7,-24.0 L108.3,-60.7 L109.2,-62.0 L109.7,-62.9 L110.1,-64.4 L110.3,-65.5 L110.2,-67.0 L109.9,-68.6 L109.2,-70.0 L108.3,-71.3Z" fill="url(#tb09-g)"/></svg>