<svg xmlns="http://www.w3.org/2000/svg" viewBox="-66.3 -108.3 372.5 216.6" xmlns:c2pa="http://c2pa.org/manifest"><metadata><c2pa:manifest>AAAWgmp1bWIAAAAeanVtZGMycGEAEQAQgAAAqgA4m3EDYzJwYQAAABZcanVtYgAAAEdqdW1kYzJtYQARABCAAACqADibcQN1cm46YzJwYTowMzNmMmM0Yi02YmJlLTQ5YWItYjkxZS1kZjcxNjRiMmI1YmYAAAADl2p1bWIAAAApanVtZGMyYXMAEQAQgAAAqgA4m3EDYzJwYS5hc3NlcnRpb25zAAAAALxqdW1iAAAARGp1bWRjYm9yABEAEIAAAKoAOJtxE2MycGEuaW5ncmVkaWVudC52MwAAAAAYYzJzaCBjzbE0b+cd9vuWRQm8cwYAAABwY2JvcqNpZGM6Zm9ybWF0bWltYWdlL3N2Zyt4bWxqaW5zdGFuY2VJRHgseG1wOmlpZDo3NGIyNTgxZi0yM2M0LTQ2YWMtOTY1OS1kMzYxNmQwZjE2MDdscmVsYXRpb25zaGlwaHBhcmVudE9mAAAB4mp1bWIAAABBanVtZGNib3IAEQAQgAAAqgA4m3ETYzJwYS5hY3Rpb25zLnYyAAAAABhjMnNo/zALWIFHaTVZv1ciACgGugAAAZljYm9yomdhY3Rpb25zgqJmYWN0aW9ua2MycGEub3BlbmVkanBhcmFtZXRlcnOha2luZ3JlZGllbnRzgaJjdXJseC1zZWxmI2p1bWJmPWMycGEuYXNzZXJ0aW9ucy9jMnBhLmluZ3JlZGllbnQudjNkaGFzaFggq/Fs8CKs4v7gRjHBBsxVXnJZ0s6B5t6rivo1gr9XiQekZmFjdGlvbngdY29tLmFudGhyb3BpYy5jbGF1ZGUucHJvdmlkZWRqcGFyYW1ldGVyc6F4H2NvbS5hbnRocm9waWMub3JpZ2luLWNvbmZpZGVuY2VndW5rbm93bmtkZXNjcmlwdGlvbnhmQ2xhdWRlIHByb3ZpZGVkIHRoaXMgZmlsZSBhdCB0aGUgcmVxdWVzdCBvZiBhIHVzZXIgYW5kIG1heSBoYXZlIGNyZWF0ZWQgb3IgbW9kaWZpZWQgdGhlIGZpbGUgY29udGVudHMubXNvZnR3YXJlQWdlbnShZG5hbWVmQ2xhdWRlcmFsbEFjdGlvbnNJbmNsdWRlZPUAAADIanVtYgAAAEBqdW1kY2JvcgARABCAAACqADibcRNjMnBhLmhhc2guZGF0YQAAAAAYYzJzaGaDrTcizNNzwmzRlQUDCT8AAACAY2JvcqVjYWxnZnNoYTI1NmNwYWRNAAAAAAAAAAAAAAAAAGRoYXNoWCDiBq5GWEO3V0i0GPPMs+9Yk2QohiMUD5MVthlOlKQzc2RuYW1lbmp1bWJmIG1hbmlmZXN0amV4Y2x1c2lvbnOBomVzdGFydBiKZmxlbmd0aBkeBAAAAj5qdW1iAAAAJ2p1bWRjMmNsABEAEIAAAKoAOJtxA2MycGEuY2xhaW0udjIAAAACD2Nib3KlY2FsZ2ZzaGEyNTZpc2lnbmF0dXJleE1zZWxmI2p1bWJmPS9jMnBhL3VybjpjMnBhOjAzM2YyYzRiLTZiYmUtNDlhYi1iOTFlLWRmNzE2NGIyYjViZi9jMnBhLnNpZ25hdHVyZWppbnN0YW5jZUlEeCx4bXA6aWlkOjk4YjZiNjM2LWFjNDQtNDhkMi1iZGJjLWZlYjg2ZDBkMzdmYXJjcmVhdGVkX2Fzc2VydGlvbnODomN1cmx4LXNlbGYjanVtYmY9YzJwYS5hc3NlcnRpb25zL2MycGEuaW5ncmVkaWVudC52M2RoYXNoWCCr8WzwIqzi/uBGMcEGzFVeclnSzoHm3quK+jWCv1eJB6JjdXJseCpzZWxmI2p1bWJmPWMycGEuYXNzZXJ0aW9ucy9jMnBhLmFjdGlvbnMudjJkaGFzaFggxjMB0KCFHsAgPlx5pBXQZ3WbetFkFEXmPfRnBNcWjs+iY3VybHgpc2VsZiNqdW1iZj1jMnBhLmFzc2VydGlvbnMvYzJwYS5oYXNoLmRhdGFkaGFzaFgg8fu3NKMPpWWttvEbNbJMqTyQu2N6P7o+G7Zk9lhDFMh0Y2xhaW1fZ2VuZXJhdG9yX2luZm+jZG5hbWVvQW50aHJvcGljIEZpbGVzZ3ZlcnNpb25lMS4wLjBrc3BlY1ZlcnNpb25lMi40LjAAABA4anVtYgAAAChqdW1kYzJjcwARABCAAACqADibcQNjMnBhLnNpZ25hdHVyZQAAABAIY2JvctKEWQISogEmGCFZAgowggIGMIIBjaADAgECAhRA5aAK7sI50L64g/oGQgU9Z1UTADAKBggqhkjOPQQDAzBJMRcwFQYDVQQKEw5BbnRocm9waWMsIFBCQzEuMCwGA1UEAxMlQW50aHJvcGljIENvbnRlbnQgQ3JlZGVudGlhbHMgUm9vdCBDQTAeFw0yNjA4MDcxODQzNTZaFw0yODA4MDYxOTQzNTZaMEQxFzAVBgNVBAoTDkFudGhyb3BpYywgUEJDMSkwJwYDVQQDEyBBbnRocm9waWMgQ2xhdWRlIENvbnRlbnQgU2lnbmluZzBZMBMGByqGSM49AgEGCCqGSM49AwEHA0IABJh6CmvLUBgFFNU0vUKlOVtE6djd17L5SuwX0LemFisBM3dkd/3cyjxFA3Qo5S46fX0/ihY0VZ7mfb9KF703t5OjWDBWMA4GA1UdDwEB/wQEAwIHgDAVBgNVHSUEDjAMBgorBgEEAYPoXgIBMAwGA1UdEwEB/wQCMAAwHwYDVR0jBBgwFoAUzlHiBIFOZFsj+OPEz5o+nMHXXMIwCgYIKoZIzj0EAwMDZwAwZAIwMXMdFJ4BetLLVY7ORuE9noqbbAZOZn/aArXyTwFAZfKrPzxF2vPoJNf1+UCdg1XGAjBwX1zd9WGqYkqmL5SFqw1QySjr1zJfpJM9+1rdDwSPLMOPOjKuiXjoU/pUUeG9RwmhY3BhZFkNngAAAAAAAAAAAAAAAAAAAAAAAAAAAAAAAAAAAAAAAAAAAAAAAAAAAAAAAAAAAAAAAAAAAAAAAAAAAAAAAAAAAAAAAAAAAAAAAAAAAAAAAAAAAAAAAAAAAAAAAAAAAAAAAAAAAAAAAAAAAAAAAAAAAAAAAAAAAAAAAAAAAAAAAAAAAAAAAAAAAAAAAAAAAAAAAAAAAAAAAAAAAAAAAAAAAAAAAAAAAAAAAAAAAAAAAAAAAAAAAAAAAAAAAAAAAAAAAAAAAAAAAAAAAAAAAAAAAAAAAAAAAAAAAAAAAAAAAAAAAAAAAAAAAAAAAAAAAAAAAAAAAAAAAAAAAAAAAAAAAAAAAAAAAAAAAAAAAAAAAAAAAAAAAAAAAAAAAAAAAAAAAAAAAAAAAAAAAAAAAAAAAAAAAAAAAAAAAAAAAAAAAAAAAAAAAAAAAAAAAAAAAAAAAAAAAAAAAAAAAAAAAAAAAAAAAAAAAAAAAAAAAAAAAAAAAAAAAAAAAAAAAAAAAAAAAAAAAAAAAAAAAAAAAAAAAAAAAAAAAAAAAAAAAAAAAAAAAAAAAAAAAAAAAAAAAAAAAAAAAAAAAAAAAAAAAAAAAAAAAAAAAAAAAAAAAAAAAAAAAAAAAAAAAAAAAAAAAAAAAAAAAAAAAAAAAAAAAAAAAAAAAAAAAAAAAAAAAAAAAAAAAAAAAAAAAAAAAAAAAAAAAAAAAAAAAAAAAAAAAAAAAAAAAAAAAAAAAAAAAAAAAAAAAAAAAAAAAAAAAAAAAAAAAAAAAAAAAAAAAAAAAAAAAAAAAAAAAAAAAAAAAAAAAAAAAAAAAAAAAAAAAAAAAAAAAAAAAAAAAAAAAAAAAAAAAAAAAAAAAAAAAAAAAAAAAAAAAAAAAAAAAAAAAAAAAAAAAAAAAAAAAAAAAAAAAAAAAAAAAAAAAAAAAAAAAAAAAAAAAAAAAAAAAAAAAAAAAAAAAAAAAAAAAAAAAAAAAAAAAAAAAAAAAAAAAAAAAAAAAAAAAAAAAAAAAAAAAAAAAAAAAAAAAAAAAAAAAAAAAAAAAAAAAAAAAAAAAAAAAAAAAAAAAAAAAAAAAAAAAAAAAAAAAAAAAAAAAAAAAAAAAAAAAAAAAAAAAAAAAAAAAAAAAAAAAAAAAAAAAAAAAAAAAAAAAAAAAAAAAAAAAAAAAAAAAAAAAAAAAAAAAAAAAAAAAAAAAAAAAAAAAAAAAAAAAAAAAAAAAAAAAAAAAAAAAAAAAAAAAAAAAAAAAAAAAAAAAAAAAAAAAAAAAAAAAAAAAAAAAAAAAAAAAAAAAAAAAAAAAAAAAAAAAAAAAAAAAAAAAAAAAAAAAAAAAAAAAAAAAAAAAAAAAAAAAAAAAAAAAAAAAAAAAAAAAAAAAAAAAAAAAAAAAAAAAAAAAAAAAAAAAAAAAAAAAAAAAAAAAAAAAAAAAAAAAAAAAAAAAAAAAAAAAAAAAAAAAAAAAAAAAAAAAAAAAAAAAAAAAAAAAAAAAAAAAAAAAAAAAAAAAAAAAAAAAAAAAAAAAAAAAAAAAAAAAAAAAAAAAAAAAAAAAAAAAAAAAAAAAAAAAAAAAAAAAAAAAAAAAAAAAAAAAAAAAAAAAAAAAAAAAAAAAAAAAAAAAAAAAAAAAAAAAAAAAAAAAAAAAAAAAAAAAAAAAAAAAAAAAAAAAAAAAAAAAAAAAAAAAAAAAAAAAAAAAAAAAAAAAAAAAAAAAAAAAAAAAAAAAAAAAAAAAAAAAAAAAAAAAAAAAAAAAAAAAAAAAAAAAAAAAAAAAAAAAAAAAAAAAAAAAAAAAAAAAAAAAAAAAAAAAAAAAAAAAAAAAAAAAAAAAAAAAAAAAAAAAAAAAAAAAAAAAAAAAAAAAAAAAAAAAAAAAAAAAAAAAAAAAAAAAAAAAAAAAAAAAAAAAAAAAAAAAAAAAAAAAAAAAAAAAAAAAAAAAAAAAAAAAAAAAAAAAAAAAAAAAAAAAAAAAAAAAAAAAAAAAAAAAAAAAAAAAAAAAAAAAAAAAAAAAAAAAAAAAAAAAAAAAAAAAAAAAAAAAAAAAAAAAAAAAAAAAAAAAAAAAAAAAAAAAAAAAAAAAAAAAAAAAAAAAAAAAAAAAAAAAAAAAAAAAAAAAAAAAAAAAAAAAAAAAAAAAAAAAAAAAAAAAAAAAAAAAAAAAAAAAAAAAAAAAAAAAAAAAAAAAAAAAAAAAAAAAAAAAAAAAAAAAAAAAAAAAAAAAAAAAAAAAAAAAAAAAAAAAAAAAAAAAAAAAAAAAAAAAAAAAAAAAAAAAAAAAAAAAAAAAAAAAAAAAAAAAAAAAAAAAAAAAAAAAAAAAAAAAAAAAAAAAAAAAAAAAAAAAAAAAAAAAAAAAAAAAAAAAAAAAAAAAAAAAAAAAAAAAAAAAAAAAAAAAAAAAAAAAAAAAAAAAAAAAAAAAAAAAAAAAAAAAAAAAAAAAAAAAAAAAAAAAAAAAAAAAAAAAAAAAAAAAAAAAAAAAAAAAAAAAAAAAAAAAAAAAAAAAAAAAAAAAAAAAAAAAAAAAAAAAAAAAAAAAAAAAAAAAAAAAAAAAAAAAAAAAAAAAAAAAAAAAAAAAAAAAAAAAAAAAAAAAAAAAAAAAAAAAAAAAAAAAAAAAAAAAAAAAAAAAAAAAAAAAAAAAAAAAAAAAAAAAAAAAAAAAAAAAAAAAAAAAAAAAAAAAAAAAAAAAAAAAAAAAAAAAAAAAAAAAAAAAAAAAAAAAAAAAAAAAAAAAAAAAAAAAAAAAAAAAAAAAAAAAAAAAAAAAAAAAAAAAAAAAAAAAAAAAAAAAAAAAAAAAAAAAAAAAAAAAAAAAAAAAAAAAAAAAAAAAAAAAAAAAAAAAAAAAAAAAAAAAAAAAAAAAAAAAAAAAAAAAAAAAAAAAAAAAAAAAAAAAAAAAAAAAAAAAAAAAAAAAAAAAAAAAAAAAAAAAAAAAAAAAAAAAAAAAAAAAAAAAAAAAAAAAAAAAAAAAAAAAAAAAAAAAAAAAAAAAAAAAAAAAAAAAAAAAAAAAAAAAAAAAAAAAAAAAAAAAAAAAAAAAAAAAAAAAAAAAAAAAAAAAAAAAAAAAAAAAAAAAAAAAAAAAAAAAAAAAAAAAAAAAAAAAAAAAAAAAAAAAAAAAAAAAAAAAAAAAAAAAAAAAAAAAAAAAAAAAAAAAAAAAAAAAAAAAAAAAAAAAAAAAAAAAAAAAAAAAAAAAAAAAAAAAAAAAAAAAAAAAAAAAAAAAAAAAAAAAAAAAAAAAAAAAAAAAAAAAAAAAAAAAAAAAAAAAAAAAAAAAAAAAAAAAAAAAAAAAAAAAAAAAAAAAAAAAAAAAAAAAAAAAAAAAAAAAAAAAAAAAAAAAAAAAAAAAAAAAAAAAAAAAAAAAAAAAAAAAAAAAAAAAAAAAAAAAAAAAAAAAAAAAAAAAAAAAAAAAAAAAAAAAAAAAAAAAAAAAAAAAAAAAAAAAAAAAAAAAAAAAAAAAAAAAAAAAAAAAAAAAAAAAAAAAAAAAAAAAAAAAAAAAAAAAAAAAAAAAAAAAAAAAAAAAAAAAAAAAAAAAAAAAAAAAAAAAAAAAAAAAAAAAAAAAAAAAAAAAAAAAAAAAAAAAAAAAAAAAAAAAAAAAAAAAAAAAAAAAAAAAAAAAAAAAAAAAAAAAAAAAAAAAAAAAAAAAAAAAAAAAAAAAAAAAAAAAAAAAAAAAAAAAAAAAAAAAAAAAAAAAAAAAAAAAAAAAAAAAAAAAAAAAAAAAAAAAAAAAAAAAAAAAAAAAAAAAAAAAAAAAAAAAAAAAAAAAAAAAAAAAAAAAAAAAAAAAAAAAAAAAAAAAAAAAAAAAAAAAAAAAAAAAAAAAAAAAAAAAAAAAAAAAAAAAAAAAAAAAAAAAAAAAAAAAAAAAAAAAAAAAAAAAAAAAAAAAAAAAAAAAAAAAAAAAAAAAAAAAAAAAAAAAAAAAAAAAAAAAAAAAAAAAAAAAAAAAAAAAAAAAAAAAAAAAAAAAAAAAAAAAAAAAAAAAAAAAAAAAAAAAAAAAAAAAAAAAAAAAAAAAAAAAAAAAAAAAAAAAAAAAAAAAAAAAAAAAAAAAAAAAAAAAAAAAAAAAAAAAAAAAAAAAAAAAAAAAAAAAAAAAAAAAAAAAAAAAAAAAAAAAAAAAAAAAAAAAAAAAAAAAAAAAAAAAAAAAAAAAAAAAAAAAAAAAAAAAAAAAAAAAAAAAAAAAAAAAAAAAAAAAAAAAAAAAAAAAAAAAAAAAAAAAAAAAAAAAAAAAAAAAAAAAAAAAAAAAAAAAAAAAAAAAAAAAAAAAAAAAAAAAAAAAAAAAAAAAAAAAAAAAAAAAAAAAAAAAAAAAAAAAAAAAAAAAAAAAAAAAAAAAAAAAAAAAAAAAAAAAAAAAAAAAAAAAAAAAAAAAAAAAAAAAAAAAAAAAAAAAAAAAAAAAAAAAAAAAAAAAAAAAAAAAAAAAAAAAAAAAAAAAAAAAAAAAAAAAAAAAAAAAAAAAAAAAAAAAAAAAAAAAAAAAAAAAAAAAAAAAAAAAAAAAAAAAAAAAAAAAAAAAAAAAAAAAAAAAAAAAAAAAAAAAAAAAAAAAAAAAAAAAAAAAAAAAAAAAAAAAAAAAAAAAAAAAAAAAAAAAAAAAAAAAAAAAAAAAAAAAAAAAAAAAAAAAAAAAAAAAAAAAAAAAAAAAAAAAAAAAAAAAAAAAAAAAPZYQLKhmTY0ScIFNIMu2AVeTxZR/VFzy5cDNW5KGY2Kfr98rxzeL3f7Nl0arjn8Lkpb0Q0jpMSq2INY78CQcIybiRg=</c2pa:manifest></metadata><defs><linearGradient id="tb03-c" gradientUnits="userSpaceOnUse" x1="-56" y1="0" x2="296" y2="0"><stop offset="0" stop-color="#19D6C4"/><stop offset="1" stop-color="#14529E"/></linearGradient><linearGradient id="tb03-g" x1="0" y1="0" x2="0" y2="1"><stop offset="0" stop-color="#FFF0B8"/><stop offset="1" stop-color="#E0B450"/></linearGradient></defs><path d="M6.1,-53.8 L5.2,-54.6 L3.7,-55.5 L2.0,-56.0 L0.3,-56.3 L-0.9,-56.2 L-2.6,-55.9 L-4.2,-55.2 L-5.7,-54.2 L-6.5,-53.5 L-53.7,-6.3 L-54.6,-5.2 L-55.5,-3.7 L-56.0,-2.0 L-56.2,-0.9 L-56.2,0.9 L-56.0,2.0 L-55.7,3.2 L-54.9,4.8 L-54.2,5.7 L-53.7,6.3 L-6.3,53.7 L-5.2,54.6 L-4.2,55.2 L-3.2,55.7 L-1.5,56.1 L-0.3,56.3 L0.9,56.2 L2.6,55.9 L4.2,55.2 L5.2,54.6 L6.1,53.8 L47.3,12.7 L49.0,11.2 L50.0,10.5 L52.0,9.3 L54.2,8.4 L56.5,7.8 L57.7,7.6 L60.0,7.5 L62.3,7.6 L63.5,7.8 L65.8,8.4 L68.0,9.3 L69.0,9.9 L70.0,10.5 L71.9,11.9 L113.7,53.7 L114.3,54.2 L115.3,54.9 L116.3,55.5 L117.4,55.9 L118.5,56.1 L119.7,56.3 L121.5,56.1 L122.6,55.9 L123.7,55.5 L124.8,54.9 L125.7,54.2 L126.5,53.5 L168.1,11.9 L170.0,10.5 L171.0,9.9 L173.1,8.8 L175.3,8.1 L176.5,7.8 L177.7,7.6 L180.0,7.5 L182.3,7.6 L184.7,8.1 L185.8,8.4 L188.0,9.3 L190.0,10.5 L191.0,11.2 L192.7,12.7 L233.9,53.8 L235.3,54.9 L236.3,55.5 L237.4,55.9 L239.1,56.2 L240.3,56.3 L241.5,56.1 L242.6,55.9 L244.2,55.2 L245.2,54.6 L246.3,53.7 L293.5,6.5 L294.6,5.2 L295.2,4.2 L295.7,3.2 L296.1,1.5 L296.3,0.3 L296.2,-0.9 L295.9,-2.6 L295.5,-3.7 L294.9,-4.8 L294.2,-5.7 L293.7,-6.3 L246.3,-53.7 L245.2,-54.6 L244.2,-55.2 L242.6,-55.9 L241.5,-56.1 L240.3,-56.3 L239.1,-56.2 L237.4,-55.9 L235.8,-55.2 L234.8,-54.6 L233.9,-53.8 L192.7,-12.7 L191.0,-11.2 L189.0,-9.9 L188.0,-9.3 L185.8,-8.4 L184.7,-8.1 L182.3,-7.6 L180.0,-7.5 L177.7,-7.6 L176.5,-7.8 L175.3,-8.1 L173.1,-8.8 L171.0,-9.9 L170.0,-10.5 L168.1,-11.9 L126.3,-53.7 L125.2,-54.6 L124.2,-55.2 L123.2,-55.7 L122.0,-56.0 L120.9,-56.2 L119.7,-56.3 L118.5,-56.1 L117.4,-55.9 L115.8,-55.2 L114.8,-54.6 L113.9,-53.8 L72.7,-12.7 L71.0,-11.2 L70.0,-10.5 L68.0,-9.3 L65.8,-8.4 L63.5,-7.8 L62.3,-7.6 L60.0,-7.5 L57.7,-7.6 L56.5,-7.8 L54.2,-8.4 L52.0,-9.3 L51.0,-9.9 L49.0,-11.2 L48.1,-11.9Z" fill="url(#tb03-c)"/><path d="M65.7,-96.0 L64.4,-97.0 L63.5,-97.5 L62.1,-98.0 L60.5,-98.3 L59.0,-98.2 L57.4,-97.9 L56.0,-97.2 L55.1,-96.6 L54.3,-96.0 L23.7,-65.3 L23.0,-64.4 L22.3,-63.1 L22.0,-62.1 L21.7,-60.5 L21.8,-59.0 L22.1,-57.4 L22.8,-56.0 L23.4,-55.1 L24.0,-54.3 L54.7,-23.7 L55.6,-23.0 L56.9,-22.3 L57.9,-22.0 L59.5,-21.7 L61.0,-21.8 L62.6,-22.1 L63.5,-22.5 L64.4,-23.0 L65.7,-24.0 L96.3,-54.7 L97.2,-56.0 L97.7,-56.9 L98.1,-58.4 L98.3,-59.5 L98.2,-61.0 L97.9,-62.6 L97.2,-64.0 L96.3,-65.3Z" fill="url(#tb03-g)"/><path d="M185.7,24.0 L184.4,23.0 L183.5,22.5 L182.1,22.0 L180.5,21.7 L179.0,21.8 L177.4,22.1 L176.5,22.5 L175.1,23.4 L174.3,24.0 L143.7,54.7 L143.0,55.6 L142.3,56.9 L142.0,57.9 L141.7,59.5 L141.8,61.0 L142.0,62.1 L142.3,63.1 L143.0,64.4 L144.0,65.7 L174.7,96.3 L175.6,97.0 L176.9,97.7 L178.4,98.1 L179.5,98.3 L181.0,98.2 L182.6,97.9 L183.5,97.5 L184.4,97.0 L185.7,96.0 L216.3,65.3 L217.0,64.4 L217.7,63.1 L218.0,62.1 L218.3,60.5 L218.2,59.0 L217.9,57.4 L217.2,56.0 L216.3,54.7Z" fill="url(#tb03-g)"/></svg>